<svg xmlns="http://www.w3.org/2000/svg">
   <g>
    <path fill="#ffff00" stroke-width="27.82025" stroke-linejoin="round" stroke-miterlimit="24.3" stroke="#000000" stroke-linecap="round" id="path2383" d="m621.99774,457.05145l-302.45859,0l-302.45843,0l151.22926,-219.26625l151.22917,-219.26624l151.22934,219.26624l151.22925,219.26625z"/>
    <g>
     <path fill="#000000" stroke-width="10" stroke-linejoin="round" stroke-miterlimit="4" id="path3155" d="m307.98761,361.18271c-4.74591,0.58597 -10.40964,3.1131 -14.83081,5.54037c-4.42117,2.42734 -8.38574,5.12436 -11.36118,8.56827c-2.97559,3.44388 -3.64285,7.92639 -4.71869,11.87585c-1.07581,3.9494 -1.42847,7.17923 0.4465,11.56357c1.87509,4.3844 5.34079,10.27692 9.33804,13.81763c3.99738,3.54062 6.83405,7.25809 12.13892,8.81262c5.3049,1.55438 11.49643,3.7117 16.77493,4.46405c5.2785,0.75238 9.16867,-0.67975 14.38123,-1.91916c5.21265,-1.23969 11.91443,-3.56949 16.28403,-6.26273c4.36954,-2.69305 6.79114,-5.78555 9.44565,-8.94785c2.65448,-3.16232 3.43878,-6.20703 3.6647,-10.05164c0.22586,-3.8447 -0.61108,-7.64627 -3.57831,-11.22162c-2.9671,-3.57538 -6.11563,-8.10696 -9.57434,-11.7955c-3.4588,-3.68848 -7.59082,-7.03699 -12.04861,-9.04306c-4.45795,-2.00598 -9.51703,-3.69537 -13.95456,-4.71945c-4.43756,-1.0242 -7.66171,-1.26727 -12.4075,-0.68137z"/>
     <path fill="#000000" stroke-width="10" stroke-linejoin="round" stroke-miterlimit="4" id="path3157" d="m307.6767,151.60153c-4.74625,0.60469 -12.76193,1.35469 -18.61142,2.84224c-5.84964,1.48756 -11.634,4.28853 -16.05695,9.06818c-4.42285,4.77959 -7.77557,10.70508 -10.21808,18.00098c-2.44235,7.29567 -3.99594,12.83627 -3.6492,23.27936c0.34662,10.44299 2.5625,24.68341 5.10895,37.76135c2.54654,13.07787 5.11243,28.54555 8.39331,41.55095c3.28116,13.00555 8.88373,24.57239 13.09869,33.71524c4.21487,9.14297 8.12341,16.65213 11.9982,21.0318c3.87485,4.37961 5.48203,6.06885 9.57156,7.91797c4.0896,1.84882 9.72867,3.17252 14.67023,2.84222c4.9415,-0.33038 9.79922,-6.79071 13.53632,-10.35123c3.73724,-3.56052 9.05457,-17.72449 13.24124,-30.80817c4.18661,-13.08359 8.32135,-21.41193 13.73718,-42.80872c5.41574,-21.39694 10.99506,-53.29559 13.56796,-67.48331c2.57266,-14.18784 1.27924,-13.37502 -1.27448,-19.709c-2.55368,-6.33405 -7.11307,-10.24644 -11.49811,-13.85666c-4.38519,-3.61028 -6.78625,-5.78218 -14.46918,-7.7709c-7.68298,-1.98845 -13.17392,-3.34169 -20.03494,-4.04845c-6.8609,-0.70659 -16.36505,-1.77853 -21.1113,-1.17386z"/>
    </g>
   </g>
</svg>